<?xml version="1.0" encoding="UTF-8" standalone="no"?>
<!-- Created with Inkscape (http://www.inkscape.org/) -->

<svg
   xmlns:dc="http://purl.org/dc/elements/1.1/"
   xmlns:cc="http://creativecommons.org/ns#"
   xmlns:rdf="http://www.w3.org/1999/02/22-rdf-syntax-ns#"
   xmlns:svg="http://www.w3.org/2000/svg"
   xmlns="http://www.w3.org/2000/svg"
   xmlns:sodipodi="http://sodipodi.sourceforge.net/DTD/sodipodi-0.dtd"
   xmlns:inkscape="http://www.inkscape.org/namespaces/inkscape"
   width="210mm"
   height="297mm"
   viewBox="0 0 744.09448819 1052.3622047"
   id="svg2"
   version="1.1"
   inkscape:version="0.91 r13725"
   sodipodi:docname="drawing.svg">
  <defs
     id="defs4" />
  <sodipodi:namedview
     id="base"
     pagecolor="#ffffff"
     bordercolor="#666666"
     borderopacity="1.0"
     inkscape:pageopacity="0.0"
     inkscape:pageshadow="2"
     inkscape:zoom="2.8"
     inkscape:cx="370.59307"
     inkscape:cy="506.32069"
     inkscape:document-units="px"
     inkscape:current-layer="layer1"
     showgrid="false"
     inkscape:window-width="1920"
     inkscape:window-height="1027"
     inkscape:window-x="-8"
     inkscape:window-y="-8"
     inkscape:window-maximized="1" />
  <metadata
     id="metadata7">
    <rdf:RDF>
      <cc:Work
         rdf:about="">
        <dc:format>image/svg+xml</dc:format>
        <dc:type
           rdf:resource="http://purl.org/dc/dcmitype/StillImage" />
        <dc:title></dc:title>
      </cc:Work>
    </rdf:RDF>
  </metadata>
  <g
     inkscape:label="Layer 1"
     inkscape:groupmode="layer"
     id="layer1">
    <path
       style="fill:#090909"
       d="m 335.62599,524.11626 c -19.55683,-39.1106 -35.30791,-71.36015 -35.0024,-71.66565 0.30551,-0.30551 6.51842,2.04066 13.80648,5.21371 7.28806,3.17305 23.16313,10.032 35.27793,15.24213 l 22.02691,9.47294 30.47309,-13.1922 c 41.06274,-17.77659 39.94943,-17.31774 40.55313,-16.71405 0.56547,0.56548 -70.23301,142.7533 -71.08004,142.7533 -0.27347,0 -16.49827,-31.99958 -36.0551,-71.11018 z m 87.64413,-53.657 c -0.38067,-0.14695 -7.30005,2.63873 -15.3764,6.19041 -8.07634,3.55168 -19.54443,8.53256 -25.48463,11.06861 l -10.80037,4.61101 -19.46382,-8.43411 c -10.70509,-4.63876 -22.1073,-9.61191 -25.33824,-11.05143 -3.23094,-1.43952 -6.26787,-2.61731 -6.74875,-2.61731 -0.48087,0 10.9362,23.62615 25.37127,52.50255 l 26.24559,52.50255 26.14374,-52.25255 c 14.37906,-28.7389 25.83229,-52.37278 25.45161,-52.51973 z"
       id="path3347"
       inkscape:connector-curvature="0" />
  </g>
</svg>
